<?xml version="1.0" standalone="no"?>
<!DOCTYPE svg PUBLIC "-//W3C//DTD SVG 20010904//EN"
 "http://www.w3.org/TR/2001/REC-SVG-20010904/DTD/svg10.dtd">
<svg version="1.0" xmlns="http://www.w3.org/2000/svg"
 width="1147.000000pt" height="1147.000000pt" viewBox="0 0 1147.000000 1147.000000"
 preserveAspectRatio="xMidYMid meet">
<metadata>
Created by potrace 1.11, written by Peter Selinger 2001-2013
</metadata>
<g transform="translate(0.000000,1147.000000) scale(0.100000,-0.100000)"
fill="#000000" stroke="none">
<path d="M5469 10367 c-19 -4 -40 -9 -47 -10 -7 -2 -18 -9 -24 -15 -7 -7 -18
-12 -25 -12 -7 0 -13 -5 -13 -12 0 -6 -3 -8 -7 -5 -5 6 -29 -17 -62 -59 -5 -6
-12 -20 -15 -32 -4 -12 -11 -22 -15 -22 -4 0 -8 -6 -9 -12 -1 -7 -4 -29 -8
-48 -8 -44 -9 -8765 -1 -8804 10 -46 59 -136 74 -136 8 0 12 -4 9 -9 -3 -4 6
-13 19 -19 14 -7 25 -16 25 -22 0 -6 4 -9 9 -5 5 3 16 -2 25 -11 9 -8 21 -12
27 -8 7 4 9 3 5 -4 -8 -13 -31 -12 302 -15 150 -2 275 0 278 5 3 5 10 6 15 3
5 -4 9 -2 9 4 0 6 7 8 15 5 8 -4 15 -1 15 5 0 6 7 11 15 11 8 0 15 5 15 10 0
6 4 9 9 8 5 -2 17 6 26 17 9 11 13 13 9 5 -5 -10 0 -9 14 4 24 21 29 30 10 21
-7 -4 -4 1 7 10 11 9 19 21 17 26 -1 5 2 9 7 9 8 0 20 23 27 53 1 4 3 8 4 10
1 1 4 16 7 32 7 46 7 8766 -1 8802 -10 49 -24 83 -36 83 -5 0 -9 4 -8 9 2 5
-6 17 -17 26 -11 9 -13 13 -5 9 10 -5 9 0 -4 14 -21 24 -31 29 -20 10 4 -7 -3
-2 -16 11 -25 26 -100 62 -112 55 -4 -3 -8 -1 -8 3 0 11 -496 11 -541 0z"/>
<path d="M8955 9212 c-2 -2 -11 -5 -22 -7 -10 -2 -19 -4 -20 -5 -2 -2 -6 -3
-10 -4 -13 -2 -103 -58 -103 -63 0 -2 5 -1 12 3 7 4 8 3 4 -4 -4 -7 -14 -12
-22 -12 -8 0 -13 -4 -10 -9 3 -5 -1 -12 -10 -15 -8 -3 -12 -10 -9 -16 3 -5 2
-10 -4 -10 -8 0 -20 -23 -27 -52 -1 -5 -2 -9 -3 -10 -12 -15 -14 -477 -14
-3268 0 -2791 2 -3253 14 -3267 1 -2 2 -6 3 -10 7 -30 19 -53 27 -53 5 0 8 -3
7 -7 -3 -15 14 -43 23 -37 5 3 9 -2 9 -10 0 -9 5 -16 11 -16 6 0 20 -10 31
-23 11 -12 17 -15 13 -7 -5 11 -3 11 7 -1 30 -37 102 -46 365 -45 138 1 254 4
258 8 4 4 13 4 21 1 8 -3 14 0 14 6 0 6 3 10 8 9 13 -4 52 13 52 23 0 5 4 8 9
7 5 -2 17 6 26 17 9 11 13 13 9 5 -5 -10 0 -9 14 4 24 21 29 31 10 21 -7 -4
-2 3 12 14 14 11 21 21 17 21 -5 0 -1 7 7 16 9 8 14 19 11 24 -3 5 0 10 5 12
6 2 12 15 14 29 1 13 4 29 7 34 7 14 2 6433 -5 6475 -3 19 -10 36 -16 38 -6 2
-8 7 -5 12 3 5 -2 16 -11 24 -8 9 -12 16 -7 16 4 0 1 6 -7 13 -8 7 -20 21 -26
32 -6 10 -41 35 -78 54 l-68 36 -269 0 c-149 1 -272 -1 -274 -3z"/>
<path d="M3678 8452 c-69 -25 -132 -82 -165 -149 l-28 -58 0 -2675 0 -2675 21
-46 c31 -67 78 -114 146 -148 l61 -31 286 3 286 2 50 26 c60 32 109 84 138
147 l22 47 0 2680 0 2680 -23 43 c-30 56 -96 122 -147 147 -37 18 -64 20 -320
22 -245 2 -286 1 -327 -15z"/>
<path d="M7133 7860 c-69 -35 -116 -82 -147 -149 l-21 -46 0 -2095 0 -2095 28
-57 c30 -61 74 -105 140 -140 40 -22 54 -23 324 -26 l283 -3 61 27 c72 32 130
94 158 168 20 50 20 84 20 2126 0 2033 0 2076 -20 2126 -26 67 -80 129 -143
162 l-51 27 -285 3 -285 3 -62 -31z"/>
<path d="M1994 6891 c-2 -3 -10 -6 -17 -7 -46 -10 -61 -14 -66 -21 -3 -5 -18
-14 -33 -22 -15 -8 -25 -18 -22 -23 3 -4 -1 -8 -9 -8 -15 0 -66 -77 -72 -109
-2 -9 -4 -16 -5 -16 -13 0 -20 -1809 -8 -1860 16 -65 22 -81 35 -92 8 -6 15
-15 15 -20 1 -16 44 -60 78 -79 19 -10 38 -23 41 -28 4 -5 12 -5 18 -2 6 4 11
3 11 -2 0 -5 6 -10 13 -11 36 -6 549 -6 553 1 3 4 11 5 19 1 8 -3 15 0 15 6 0
6 3 10 8 9 14 -4 52 13 52 23 0 6 5 7 10 4 6 -3 10 -1 10 4 0 6 7 11 15 11 8
0 15 7 15 16 0 8 3 13 8 11 6 -5 35 19 30 25 -1 2 7 16 17 32 11 16 21 36 23
45 5 28 7 36 13 46 6 12 3 1813 -4 1835 -2 8 -8 29 -12 45 -4 17 -19 43 -32
58 -12 16 -23 33 -23 38 0 5 -7 9 -16 9 -8 0 -13 4 -10 9 5 8 -2 13 -32 23 -4
1 -15 9 -25 18 -10 8 -21 14 -25 13 -4 0 -16 4 -27 10 -20 11 -550 19 -561 8z"/>
<path d="M191 6132 c-67 -26 -137 -96 -166 -167 -24 -59 -24 -63 -24 -399 1
-315 2 -342 21 -387 30 -72 83 -128 152 -160 l61 -29 275 0 275 0 60 28 c67
32 117 83 149 151 20 43 21 65 24 379 3 279 0 342 -13 387 -27 96 -107 176
-201 203 -27 8 -131 12 -305 11 -221 0 -271 -3 -308 -17z"/>
<path d="M10615 6121 c-71 -34 -116 -78 -147 -146 -22 -49 -23 -58 -25 -395
-2 -345 -2 -345 22 -405 17 -42 39 -74 75 -106 81 -74 108 -79 419 -79 264 0
266 0 321 26 96 44 151 112 170 210 7 39 10 167 8 379 -3 301 -4 323 -24 366
-30 63 -79 116 -138 147 l-51 27 -285 2 -285 3 -60 -29z"/>
</g>
</svg>
